<?xml version="1.0" encoding="UTF-8"?>
<svg width="200" height="150" viewBox="0 0 200 150" xmlns="http://www.w3.org/2000/svg">
  <!-- Brain/Cloud shape with circuit lines -->
  <g transform="translate(0, -10)">
    <!-- Cloud/Brain shape -->
    <path d="M140 30 C125 10, 95 10, 80 25 C70 15, 50 15, 40 30 C20 35, 10 55, 25 70 C15 80, 20 100, 40 105 L160 105 C180 100, 185 80, 175 70 C190 55, 180 35, 160 30 C155 20, 145 25, 140 30"
          fill="#5B6B87" opacity="0.95"/>

    <!-- Circuit lines connecting dots -->
    <!-- Top row -->
    <line x1="30" y1="50" x2="80" y2="50" stroke="white" stroke-width="3"/>
    <line x1="80" y1="50" x2="140" y2="50" stroke="white" stroke-width="3"/>
    <circle cx="30" cy="50" r="5" fill="white" stroke="#5B6B87" stroke-width="2"/>
    <circle cx="80" cy="50" r="4" fill="#5B6B87" stroke="white" stroke-width="3"/>

    <!-- Middle section with more complex routing -->
    <line x1="15" y1="70" x2="60" y2="70" stroke="white" stroke-width="3"/>
    <line x1="60" y1="70" x2="100" y2="70" stroke="white" stroke-width="3"/>
    <line x1="100" y1="70" x2="140" y2="70" stroke="white" stroke-width="3"/>
    <circle cx="15" cy="70" r="5" fill="white" stroke="#5B6B87" stroke-width="2"/>
    <circle cx="60" cy="70" r="4" fill="#5B6B87" stroke="white" stroke-width="3"/>
    <circle cx="100" cy="70" r="5" fill="white" stroke="#5B6B87" stroke-width="2"/>
    <circle cx="140" cy="70" r="5" fill="white" stroke="#5B6B87" stroke-width="2"/>

    <!-- Additional circuit paths -->
    <line x1="25" y1="85" x2="75" y2="85" stroke="white" stroke-width="3"/>
    <line x1="75" y1="85" x2="120" y2="85" stroke="white" stroke-width="3"/>
    <circle cx="25" cy="85" r="4" fill="#5B6B87" stroke="white" stroke-width="3"/>
    <circle cx="75" cy="85" r="5" fill="white" stroke="#5B6B87" stroke-width="2"/>
    <circle cx="120" cy="85" r="4" fill="#5B6B87" stroke="white" stroke-width="3"/>

    <!-- Lower circuit lines -->
    <line x1="10" y1="95" x2="50" y2="95" stroke="white" stroke-width="3"/>
    <line x1="50" y1="95" x2="90" y2="95" stroke="white" stroke-width="3"/>
    <circle cx="10" cy="95" r="5" fill="white" stroke="#5B6B87" stroke-width="2"/>
    <circle cx="50" cy="95" r="4" fill="#5B6B87" stroke="white" stroke-width="3"/>
    <circle cx="90" cy="95" r="5" fill="white" stroke="#5B6B87" stroke-width="2"/>
  </g>

  <!-- Two gears -->
  <!-- Large gear -->
  <g transform="translate(135, 100)">
    <circle cx="0" cy="0" r="28" fill="#9A9A9A" stroke="#7A7A7A" stroke-width="2"/>
    <!-- Gear teeth -->
    <rect x="-6" y="-34" width="12" height="10" fill="#9A9A9A"/>
    <rect x="-6" y="24" width="12" height="10" fill="#9A9A9A"/>
    <rect x="-34" y="-6" width="10" height="12" fill="#9A9A9A"/>
    <rect x="24" y="-6" width="10" height="12" fill="#9A9A9A"/>
    <g transform="rotate(45)">
      <rect x="-6" y="-34" width="12" height="10" fill="#9A9A9A"/>
      <rect x="-6" y="24" width="12" height="10" fill="#9A9A9A"/>
      <rect x="-34" y="-6" width="10" height="12" fill="#9A9A9A"/>
      <rect x="24" y="-6" width="10" height="12" fill="#9A9A9A"/>
    </g>
    <!-- Inner circle -->
    <circle cx="0" cy="0" r="18" fill="#F5F5F5" stroke="#7A7A7A" stroke-width="2"/>
    <circle cx="0" cy="0" r="8" fill="#9A9A9A"/>
  </g>

  <!-- Small gear -->
  <g transform="translate(90, 115)">
    <circle cx="0" cy="0" r="22" fill="#7A7A7A" stroke="#5A5A5A" stroke-width="2"/>
    <!-- Gear teeth -->
    <rect x="-5" y="-27" width="10" height="8" fill="#7A7A7A"/>
    <rect x="-5" y="19" width="10" height="8" fill="#7A7A7A"/>
    <rect x="-27" y="-5" width="8" height="10" fill="#7A7A7A"/>
    <rect x="19" y="-5" width="8" height="10" fill="#7A7A7A"/>
    <g transform="rotate(45)">
      <rect x="-5" y="-27" width="10" height="8" fill="#7A7A7A"/>
      <rect x="-5" y="19" width="10" height="8" fill="#7A7A7A"/>
      <rect x="-27" y="-5" width="8" height="10" fill="#7A7A7A"/>
      <rect x="19" y="-5" width="8" height="10" fill="#7A7A7A"/>
    </g>
    <!-- Inner circle -->
    <circle cx="0" cy="0" r="14" fill="#E5E5E5" stroke="#5A5A5A" stroke-width="2"/>
    <circle cx="0" cy="0" r="6" fill="#7A7A7A"/>
  </g>
</svg>